<?xml version="1.0" standalone="no"?>
<!DOCTYPE svg PUBLIC "-//W3C//DTD SVG 20010904//EN"
 "http://www.w3.org/TR/2001/REC-SVG-20010904/DTD/svg10.dtd">
<svg version="1.0" xmlns="http://www.w3.org/2000/svg"
 width="340.000000pt" height="340.000000pt" viewBox="0 0 340.000000 340.000000"
 preserveAspectRatio="xMidYMid meet">

<g transform="translate(0.000000,340.000000) scale(0.100000,-0.100000)"
fill="#000000" stroke="none">
<path d="M1512 3163 c50 -53 93 -127 114 -198 25 -86 22 -221 -6 -305 -41
-124 -92 -190 -236 -306 -111 -89 -155 -144 -183 -232 -35 -104 -30 -112 32
-56 30 27 118 87 198 134 223 132 315 238 353 407 39 176 -2 325 -125 458 -56
60 -154 135 -176 135 -4 0 9 -17 29 -37z"/>
<path d="M2789 3054 c-26 -31 25 -70 56 -44 19 16 19 25 -1 44 -20 20 -38 20
-55 0z"/>
<path d="M2700 3005 c-14 -17 -5 -51 16 -59 20 -8 54 15 54 36 0 16 -27 38
-48 38 -5 0 -15 -7 -22 -15z"/>
<path d="M2840 2979 c-41 -23 -118 -67 -170 -98 -52 -32 -129 -77 -171 -102
l-76 -44 -6 -85 c-4 -68 -2 -87 9 -93 8 -5 44 -31 80 -58 l65 -49 22 21 c36
35 98 59 153 59 l51 0 32 99 c17 54 44 118 60 141 34 51 94 90 138 90 57 0 78
42 48 100 -39 75 -120 81 -235 19z"/>
<path d="M2603 2944 c-9 -24 10 -49 37 -49 31 0 48 28 31 49 -17 21 -60 21
-68 0z"/>
<path d="M1322 2945 c2 -5 12 -28 23 -50 27 -58 32 -165 10 -222 -23 -60 -60
-101 -146 -159 -159 -108 -217 -188 -239 -335 -11 -79 -12 -77 36 -284 18 -82
14 -200 -10 -260 l-17 -40 22 25 c12 14 34 50 48 80 24 51 26 69 32 240 3 102
11 199 16 215 33 98 78 151 228 268 106 83 140 145 140 256 -1 97 -28 160 -97
227 -28 27 -49 45 -46 39z"/>
<path d="M2516 2894 c-20 -19 -20 -28 -1 -44 18 -15 45 -10 59 13 9 15 7 21
-8 33 -25 18 -31 18 -50 -2z"/>
<path d="M2422 2838 c-19 -19 -14 -37 14 -44 31 -8 58 14 48 39 -7 20 -44 23
-62 5z"/>
<path d="M1934 2618 c-87 -80 -94 -109 -84 -343 4 -97 -15 -144 -94 -233 -28
-31 -67 -77 -86 -102 l-35 -44 54 30 c29 16 88 58 130 94 124 107 168 204 142
315 -40 176 -39 211 14 289 33 48 15 46 -41 -6z"/>
<path d="M2352 2498 l-32 -40 57 -41 c32 -22 68 -49 81 -61 l23 -21 34 40 c19
22 33 45 31 50 -3 11 -144 115 -155 114 -3 0 -21 -18 -39 -41z"/>
<path d="M974 2488 c-127 -83 -221 -220 -244 -357 -10 -61 -9 -88 10 -211 24
-155 21 -242 -7 -204 -8 10 -30 50 -50 88 -97 192 -78 397 57 616 15 24 2 14
-45 -34 -72 -75 -132 -186 -156 -286 -24 -102 -16 -221 24 -348 20 -62 39
-138 42 -167 10 -80 -17 -185 -79 -309 -29 -58 -51 -106 -49 -106 9 0 224 210
291 284 98 109 133 180 139 288 5 73 2 97 -27 197 -28 101 -32 126 -28 210 3
89 7 102 46 182 23 47 64 108 90 137 27 29 45 52 42 52 -4 0 -29 -14 -56 -32z"/>
<path d="M2271 2404 c-12 -15 -21 -30 -21 -34 0 -10 24 -29 99 -81 l63 -44 24
30 c13 17 24 32 24 35 -1 6 -155 120 -163 120 -3 0 -15 -12 -26 -26z"/>
<path d="M2187 2308 l-25 -31 85 -64 c47 -34 86 -63 88 -63 1 0 14 15 28 34
l26 33 -84 62 c-47 33 -87 61 -89 61 -3 0 -16 -14 -29 -32z"/>
<path d="M2109 2219 c-12 -17 -18 -34 -13 -38 5 -5 44 -34 87 -66 l78 -59 24
30 c14 16 24 32 25 35 0 4 -40 34 -89 68 l-90 61 -22 -31z"/>
<path d="M2036 2128 c-14 -20 -14 -24 1 -41 23 -25 139 -107 152 -107 5 0 19
13 30 29 l20 28 -84 57 c-47 31 -89 56 -94 56 -6 0 -17 -10 -25 -22z"/>
<path d="M2447 2103 c-80 -84 -95 -236 -40 -393 17 -47 33 -100 37 -119 6 -33
5 -33 -72 40 -43 41 -96 84 -118 96 l-41 23 43 -84 c90 -172 98 -340 24 -486
-12 -25 -62 -101 -110 -170 -115 -165 -131 -196 -161 -330 l-7 -35 16 25 c54
79 101 131 227 248 157 147 213 211 255 293 47 91 63 169 58 289 -4 94 -8 114
-42 195 -79 186 -93 279 -57 383 10 28 17 52 16 52 -1 0 -13 -12 -28 -27z"/>
<path d="M1432 2074 c-93 -46 -141 -123 -197 -315 -20 -68 -48 -147 -63 -176
-35 -73 -103 -138 -203 -197 -46 -26 -119 -69 -163 -95 -110 -64 -210 -167
-254 -259 -29 -61 -35 -87 -39 -160 -8 -149 37 -246 183 -399 41 -43 74 -84
74 -91 0 -9 7 -11 20 -7 23 7 26 -5 7 -24 -10 -10 -7 -12 14 -10 16 2 45 -10
82 -34 243 -161 502 -165 667 -11 94 88 132 175 196 444 43 183 53 198 196
272 106 54 186 128 219 203 53 120 22 225 -66 225 -40 0 -71 -23 -96 -71 -35
-70 -123 -101 -178 -63 -26 19 -51 71 -51 109 0 15 -4 24 -10 20 -6 -3 -49 22
-97 57 -48 35 -91 66 -97 70 -8 5 -7 11 1 19 9 9 23 3 60 -28 26 -22 69 -54
94 -71 40 -27 49 -29 59 -17 17 20 10 27 -91 91 -81 52 -100 72 -73 81 5 1 50
-28 101 -66 87 -66 92 -68 108 -51 16 17 12 21 -79 81 -53 34 -96 67 -96 74 0
7 -11 10 -29 7 -83 -12 -152 52 -159 146 -3 47 0 63 20 92 21 30 37 42 98 70
8 4 16 21 18 37 2 23 -3 36 -24 52 -36 28 -88 27 -152 -5z m68 -476 c22 -18
40 -37 40 -41 0 -5 -9 -22 -20 -37 l-20 -28 47 -42 c27 -23 74 -61 105 -83 32
-23 58 -48 58 -55 0 -27 41 -71 83 -91 90 -44 192 -18 267 66 39 45 40 45 40
19 0 -33 -13 -59 -56 -112 -26 -32 -60 -55 -147 -97 -176 -86 -191 -109 -247
-382 -43 -208 -86 -296 -151 -310 -57 -13 -80 21 -94 135 -11 82 -27 113 -96
178 -38 37 -57 62 -50 66 17 11 13 46 -6 53 -10 4 -48 33 -86 65 -37 32 -74
58 -82 58 -9 0 -21 -11 -27 -25 -6 -14 -14 -25 -18 -25 -4 0 -26 18 -48 39
-46 45 -66 101 -53 147 25 86 63 125 185 186 176 88 241 150 293 278 15 38 32
70 36 70 5 0 26 -15 47 -32z m148 -142 c40 -32 72 -60 72 -62 0 -13 -33 1 -76
34 -86 64 -116 91 -109 102 7 12 11 9 113 -74z"/>
<path d="M1404 1402 c-30 -26 -36 -52 -11 -52 11 0 44 -27 119 -96 14 -13 32
-24 40 -24 8 0 19 -5 25 -11 9 -9 18 -8 37 5 36 23 33 38 -16 77 -46 38 -102
85 -132 112 -25 22 -25 22 -62 -11z"/>
<path d="M1294 1255 c-4 -9 -13 -14 -21 -13 -9 2 -20 -5 -27 -15 -9 -16 -7
-22 14 -35 13 -10 37 -29 52 -44 16 -16 33 -28 38 -28 6 0 10 -4 10 -10 0 -14
27 -12 34 3 3 6 3 2 0 -10 -4 -17 1 -25 23 -36 35 -17 52 -16 81 4 30 22 23
35 -53 94 -35 28 -79 62 -96 78 -37 31 -47 33 -55 12z m106 -75 c0 -5 -5 -10
-11 -10 -5 0 -7 5 -4 10 3 6 8 10 11 10 2 0 4 -4 4 -10z"/>
<path d="M1151 1091 l-34 -28 21 -21 c12 -12 24 -21 26 -19 3 1 25 -17 50 -40
24 -24 47 -43 50 -43 4 0 16 -9 28 -20 29 -26 63 -25 83 3 16 21 14 24 -47 79
-35 32 -81 71 -103 87 l-41 29 -33 -27z m79 -56 c0 -8 -4 -15 -10 -15 -5 0 -7
7 -4 15 4 8 8 15 10 15 2 0 4 -7 4 -15z m30 -25 c0 -5 -5 -10 -11 -10 -5 0 -7
5 -4 10 3 6 8 10 11 10 2 0 4 -4 4 -10z"/>
<path d="M1402 885 c-32 -23 -31 -79 3 -101 54 -36 109 20 78 79 -7 15 -18 27
-23 27 -4 0 -14 2 -22 5 -7 3 -23 -2 -36 -10z"/>
<path d="M1465 706 c-21 -31 -5 -66 28 -66 47 0 63 48 25 74 -30 21 -35 20
-53 -8z"/>
<path d="M1486 554 c-9 -8 -16 -22 -16 -29 0 -17 27 -45 44 -45 19 0 36 22 36
45 0 41 -36 58 -64 29z"/>
<path d="M1970 2045 c-14 -15 -20 -29 -14 -33 19 -17 120 -90 145 -106 24 -15
27 -15 49 9 14 15 20 29 14 33 -13 12 -147 108 -160 115 -6 4 -22 -5 -34 -18z"/>
<path d="M1898 1967 c-16 -23 -15 -24 40 -68 32 -25 72 -56 90 -68 32 -22 34
-22 53 -6 10 10 19 23 19 29 0 12 -161 136 -176 136 -5 0 -16 -11 -26 -23z"/>
<path d="M1842 1896 l-20 -21 78 -62 c95 -77 103 -80 123 -50 15 24 14 25 -73
89 l-89 66 -19 -22z"/>
<path d="M1775 1830 c-10 -11 -16 -22 -14 -23 2 -2 46 -32 96 -66 89 -61 123
-71 123 -37 0 12 -167 146 -182 146 -3 0 -13 -9 -23 -20z"/>
<path d="M1721 1766 c-9 -10 9 -28 85 -85 92 -69 97 -71 115 -55 10 9 16 20
13 25 -8 14 -178 129 -190 129 -6 0 -17 -6 -23 -14z"/>
<path d="M1681 1706 c-10 -11 6 -27 85 -81 88 -62 97 -66 112 -51 9 8 14 17
11 19 -14 13 -187 127 -191 127 -3 0 -11 -6 -17 -14z"/>
</g>
</svg>
