<svg xmlns="http://www.w3.org/2000/svg" version="1.1" xmlns:xlink="http://www.w3.org/1999/xlink" xmlns:svgjs="http://svgjs.dev/svgjs" width="1440" height="560" preserveAspectRatio="none" viewBox="0 0 1440 560"><g mask="url(&quot;#SvgjsMask1010&quot;)" fill="none"><rect width="1440" height="560" x="0" y="0" fill="rgba(255, 255, 255, 1)"></rect><g transform="translate(0, 0)" stroke-linecap="round"><path d="M260 131.22 L260 428.78" stroke-width="15" stroke="rgba(255, 255, 255, 1)"></path><path d="M280 151.47 L280 408.52" stroke-width="15" stroke="rgba(255, 255, 255, 1)"></path><path d="M300 232.46 L300 327.54" stroke-width="15" stroke="rgba(255, 255, 255, 1)"></path><path d="M320 128.69 L320 431.31" stroke-width="15" stroke="rgba(255, 255, 255, 1)"></path><path d="M340 160.41 L340 399.59" stroke-width="15" stroke="rgba(255, 255, 255, 1)"></path><path d="M360 169.26 L360 390.74" stroke-width="15" stroke="rgba(255, 255, 255, 1)"></path><path d="M380 165.46 L380 394.54" stroke-width="15" stroke="rgba(255, 255, 255, 1)"></path><path d="M400 251.29 L400 308.71" stroke-width="15" stroke="rgba(255, 255, 255, 1)"></path><path d="M420 117.49 L420 442.51" stroke-width="15" stroke="rgba(255, 255, 255, 1)"></path><path d="M440 254.75 L440 305.25" stroke-width="15" stroke="rgba(255, 255, 255, 1)"></path><path d="M460 197.78 L460 362.22" stroke-width="15" stroke="rgba(255, 255, 255, 1)"></path><path d="M480 256.56 L480 303.44" stroke-width="15" stroke="rgba(255, 255, 255, 1)"></path><path d="M500 164.43 L500 395.57" stroke-width="15" stroke="rgba(255, 255, 255, 1)"></path><path d="M520 257.88 L520 302.12" stroke-width="15" stroke="rgba(255, 255, 255, 1)"></path><path d="M540 113.67 L540 446.33" stroke-width="15" stroke="rgba(255, 255, 255, 1)"></path><path d="M560 241.75 L560 318.25" stroke-width="15" stroke="rgba(255, 255, 255, 1)"></path><path d="M580 154.98 L580 405.02" stroke-width="15" stroke="rgba(255, 255, 255, 1)"></path><path d="M600 215.56 L600 344.44" stroke-width="15" stroke="rgba(255, 255, 255, 1)"></path><path d="M620 182.38 L620 377.63" stroke-width="15" stroke="rgba(255, 255, 255, 1)"></path><path d="M640 125.47 L640 434.53" stroke-width="15" stroke="rgba(255, 255, 255, 1)"></path><path d="M660 254.56 L660 305.44" stroke-width="15" stroke="rgba(255, 255, 255, 1)"></path><path d="M680 159.66 L680 400.34" stroke-width="15" stroke="rgba(255, 255, 255, 1)"></path><path d="M700 241.06 L700 318.94" stroke-width="15" stroke="rgba(255, 255, 255, 1)"></path><path d="M720 241.06 L720 318.94" stroke-width="15" stroke="rgba(255, 255, 255, 1)"></path><path d="M740 105.92 L740 454.08" stroke-width="15" stroke="rgba(255, 255, 255, 1)"></path><path d="M760 134.06 L760 425.94" stroke-width="15" stroke="rgba(255, 255, 255, 1)"></path><path d="M780 149.38 L780 410.62" stroke-width="15" stroke="rgba(255, 255, 255, 1)"></path><path d="M800 144.79 L800 415.21" stroke-width="15" stroke="rgba(255, 255, 255, 1)"></path><path d="M820 249.07 L820 310.93" stroke-width="15" stroke="rgba(255, 255, 255, 1)"></path><path d="M840 187.92 L840 372.08" stroke-width="15" stroke="rgba(255, 255, 255, 1)"></path><path d="M860 151.44 L860 408.56" stroke-width="15" stroke="rgba(255, 255, 255, 1)"></path><path d="M880 145.01 L880 414.99" stroke-width="15" stroke="rgba(255, 255, 255, 1)"></path><path d="M900 139.87 L900 420.13" stroke-width="15" stroke="rgba(255, 255, 255, 1)"></path><path d="M920 125.44 L920 434.56" stroke-width="15" stroke="rgba(255, 255, 255, 1)"></path><path d="M940 110.84 L940 449.16" stroke-width="15" stroke="rgba(255, 255, 255, 1)"></path><path d="M960 257.38 L960 302.63" stroke-width="15" stroke="rgba(255, 255, 255, 1)"></path><path d="M980 257.36 L980 302.64" stroke-width="15" stroke="rgba(255, 255, 255, 1)"></path><path d="M1000 232.55 L1000 327.45" stroke-width="15" stroke="rgba(255, 255, 255, 1)"></path><path d="M1020 119.19 L1020 440.81" stroke-width="15" stroke="rgba(255, 255, 255, 1)"></path><path d="M1040 122.94 L1040 437.06" stroke-width="15" stroke="rgba(255, 255, 255, 1)"></path><path d="M1060 252.81 L1060 307.19" stroke-width="15" stroke="rgba(255, 255, 255, 1)"></path><path d="M1080 113.68 L1080 446.32" stroke-width="15" stroke="rgba(255, 255, 255, 1)"></path><path d="M1100 142.1 L1100 417.89" stroke-width="15" stroke="rgba(255, 255, 255, 1)"></path><path d="M1120 167.87 L1120 392.13" stroke-width="15" stroke="rgba(255, 255, 255, 1)"></path><path d="M1140 110.63 L1140 449.37" stroke-width="15" stroke="rgba(255, 255, 255, 1)"></path><path d="M1160 255.59 L1160 304.42" stroke-width="15" stroke="rgba(255, 255, 255, 1)"></path><path d="M1180 217 L1180 343" stroke-width="15" stroke="rgba(255, 255, 255, 1)"></path></g></g><defs><mask id="SvgjsMask1010"><rect width="1440" height="560" fill="#ffffff"></rect></mask></defs></svg>